<svg class="animated" id="freepik_stories-awards" xmlns="http://www.w3.org/2000/svg" viewBox="0 0 500 500" version="1.1" xmlns:xlink="http://www.w3.org/1999/xlink" xmlns:svgjs="http://svgjs.com/svgjs"><style>svg#freepik_stories-awards:not(.animated) .animable {opacity: 0;}svg#freepik_stories-awards.animated #freepik--Trophy--inject-5 {animation: 1s 1 forwards cubic-bezier(.36,-0.01,.5,1.38) slideUp;animation-delay: 0.2s;opacity: 0}svg#freepik_stories-awards.animated #freepik--Confetti--inject-5 {animation: 1s 1 forwards cubic-bezier(.36,-0.01,.5,1.38) slideDown;animation-delay: 0s;}            @keyframes slideUp {                0% {                    opacity: 0;                    transform: translateY(30px);                }                100% {                    opacity: 1;                    transform: inherit;                }            }                    @keyframes slideDown {                0% {                    opacity: 0;                    transform: translateY(-30px);                }                100% {                    opacity: 1;                    transform: translateY(0);                }            }        </style><g id="freepik--Floor--inject-5" class="animable" style="transform-origin: 252px 350.28px;"><ellipse cx="252" cy="350.28" rx="229.93" ry="132.75" style="fill: rgb(245, 245, 245); transform-origin: 252px 350.28px;" id="el66zh5m327kt" class="animable"></ellipse></g><g id="freepik--Shadows--inject-5" class="animable" style="transform-origin: 252.815px 370.445px;"><ellipse cx="116.98" cy="339.07" rx="56.61" ry="32.68" style="fill: rgb(224, 224, 224); transform-origin: 116.98px 339.07px;" id="elpku8c9xx53h" class="animable"></ellipse><ellipse cx="388.65" cy="339.07" rx="56.61" ry="32.68" style="fill: rgb(224, 224, 224); transform-origin: 388.65px 339.07px;" id="elhz2sty3xqup" class="animable"></ellipse><ellipse cx="247.84" cy="401.82" rx="56.61" ry="32.68" style="fill: rgb(224, 224, 224); transform-origin: 247.84px 401.82px;" id="elagik2ajqdjo" class="animable"></ellipse></g><g id="freepik--Characters--inject-5" class="animable animator-active" style="transform-origin: 249.872px 209.71px;"><path d="M374,78.89s-3.19,1.62-.6,9.14-3.28,11.28-4.8,8.32c0,0,.1,4.77,5.89,4.77s6.82-4.79,6.82-4.79,2.08,2.28,2.08,8.7-6.12,30.53,15.31,30.53,21.05-18.26,21.05-18.26,5.49.1,5.49-8.12c0,0-8.35,5.19-8.35-6.4S418.8,76.51,410,76.51c0,0,3.05-6.29-3-10.32s-24.22,1.45-24.22,1.45-5.46-3.28-9.37.6C368.6,73,374,78.89,374,78.89Z" style="fill: rgb(38, 50, 56); transform-origin: 396.92px 100.135px;" id="elw0dv8p0nged" class="animable"></path><polygon points="379.3 327.57 375.76 325.28 375.76 320.71 379.17 321.01 379.3 327.57" style="fill: rgb(38, 50, 56); transform-origin: 377.53px 324.14px;" id="elfjgpxvgcse" class="animable"></polygon><path d="M384.13,315.92l-.13,8.81-4.7,2.84-.54-7.52S382.43,315.86,384.13,315.92Z" style="fill: rgb(38, 50, 56); transform-origin: 381.445px 321.745px;" id="elz32jcuk5xai" class="animable"></path><path d="M371.3,305.58s-.25.19-3.23,8.19-6.08,10.94-7.88,12.44-5.9,4.26-5.9,6.4,3.45,3.82,8.5,3.38,12.16-1.67,14-7.73c.59-2,.7-5.54,3-8s4.35-4.34,4.35-4.34.23-8.08-2-10.25Z" style="fill: rgb(55, 71, 79); transform-origin: 369.218px 320.82px;" id="elznfl4375r3j" class="animable"></path><path d="M371.07,295.75l.25,10.64s.38,3.24,5.37,2.58S382,306,382,306l2.25-10.28Z" style="fill: rgb(255, 168, 167); transform-origin: 377.66px 302.389px;" id="elt6p5lfblrdr" class="animable"></path><path d="M374.14,172.52s-3.35,44.09-3.48,67.76.41,55.47.41,55.47a14.16,14.16,0,0,0,13.2,0L391,263.51a29.16,29.16,0,0,0,0-11.77h0a18.6,18.6,0,0,1,.06-7.65L399.16,207V172.52Z" style="fill: rgb(69, 90, 100); transform-origin: 384.9px 234.951px;" id="el2dw1rx43udl" class="animable"></path><path d="M380.73,181.55s1,10.65,9,16l5.92,25.63h0L399.15,207V181.55Z" style="fill: rgb(55, 71, 79); transform-origin: 389.94px 202.365px;" id="elk7kj68o9x8c" class="animable"></path><path d="M415.24,316.38s-1.28.32-.92,3.26.81,6.7.81,6.7.42,6.09.39,10.07-.26,9.32.55,12.16,2.49,5.86,5.09,5.77,8.68-3.9,8.09-14c-.16-2.74-3-12-3-12s.46-9,.39-11.23a1.82,1.82,0,0,0-1-1.73Z" style="fill: rgb(55, 71, 79); transform-origin: 421.773px 334.861px;" id="elvpfrkju0e8k" class="animable"></path><path d="M413.79,308.21l1.59,9s.77,2.71,5.61,2.71a4.6,4.6,0,0,0,4.64-3.81l.29-8.6Z" style="fill: rgb(255, 168, 167); transform-origin: 419.855px 313.716px;" id="elwjhyx5ss0sk" class="animable"></path><path d="M374.14,172.52s5.88,18.71,18.09,22l10.07,49.17,11.49,64.52a10.12,10.12,0,0,0,12.13-.72l1.7-49a25.2,25.2,0,0,0-1.93-10.6h0a22.15,22.15,0,0,1-1.71-8.66c.06-10.89.2-38.3.21-45.09,0-8.52-2.38-21.18-4.24-25.58Z" style="fill: rgb(69, 90, 100); transform-origin: 400.888px 239.225px;" id="ele4518m29unf" class="animable"></path><path d="M360.89,148.29,346.34,142l-5.12,9.88L356.31,160S362.54,155,360.89,148.29Z" style="fill: rgb(255, 168, 167); transform-origin: 351.194px 151px;" id="el08lm2n31wm6r" class="animable"></path><path d="M382.79,113.88l-1.64.25a10.11,10.11,0,0,0-8.06,6.7l-9.82,28.57-2.38-1.11s-.26,7-4.58,11.74l6.24,3A8.15,8.15,0,0,0,373.09,160l5.16-8.46Z" style="fill: #05609D; transform-origin: 369.55px 138.875px;" id="elr1n1iyrhga" class="animable"></path><g id="el6kryhmy6a8j"><path d="M382.79,113.88l-1.64.25a10.11,10.11,0,0,0-8.06,6.7l-9.82,28.57-2.38-1.11s-.26,7-4.58,11.74l6.24,3A8.15,8.15,0,0,0,373.09,160l5.16-8.46Z" style="opacity: 0.2; transform-origin: 369.55px 138.875px;" class="animable" id="el7lcy5oli9cv"></path></g><polygon points="363.27 149.4 368.92 152.03 364.13 146.9 363.27 149.4" style="fill: #05609D; transform-origin: 366.095px 149.465px;" id="elicaan6is9uf" class="animable"></polygon><g id="el7u8v36z0tvc"><polygon points="363.27 149.4 368.92 152.03 364.13 146.9 363.27 149.4" style="opacity: 0.4; transform-origin: 366.095px 149.465px;" class="animable" id="elhsc3b6ld1m"></polygon></g><path d="M384.19,113.81a173.21,173.21,0,0,1,25.79.46,19.76,19.76,0,0,1-18.28,7.86C385.23,121.46,383.19,116.05,384.19,113.81Z" style="fill: rgb(255, 170, 168); transform-origin: 396.965px 117.904px;" id="ellqz7c5pgat" class="animable"></path><polygon points="403.54 114.54 390.3 114.42 390.3 94.94 403.54 94.94 403.54 114.54" style="fill: rgb(255, 170, 168); transform-origin: 396.92px 104.74px;" id="elcetjisexl5h" class="animable"></polygon><path d="M390.3,111a21.3,21.3,0,0,0,12.17-11.57V94.94H390.3Z" style="fill: rgb(255, 144, 144); transform-origin: 396.385px 102.97px;" id="elkho7cavf2ii" class="animable"></path><path d="M387.21,73.23s-12.11.71-10.61,21.41c.69,9.58,2.94,14.54,10.31,14.18,8.35-.42,20.21-6.16,19.43-22.54S387.21,73.23,387.21,73.23Z" style="fill: rgb(255, 170, 168); transform-origin: 391.424px 90.895px;" id="els73ezsgtwq" class="animable"></path><path d="M403.54,94.94s-3.32.87-3.32-3.88c0,0-14.75-1-18-15.64,0,0,1.46-4.39,10.67-4.39s16.95,8.15,14.55,19.34Z" style="fill: rgb(38, 50, 56); transform-origin: 395.051px 83.0163px;" id="elpymijm35eyr" class="animable"></path><polygon points="385.48 90.49 385.48 97.61 381.31 96.33 385.48 90.49" style="fill: rgb(255, 144, 144); transform-origin: 383.395px 94.05px;" id="el6r1eb1ndumm" class="animable"></polygon><path d="M391.75,91.25a1.45,1.45,0,1,1-1.45-1.45A1.45,1.45,0,0,1,391.75,91.25Z" style="fill: rgb(38, 50, 56); transform-origin: 390.3px 91.25px;" id="el4rmu0jjvolq" class="animable"></path><path d="M382.21,90.24a1.45,1.45,0,1,1-1.45-1.45A1.45,1.45,0,0,1,382.21,90.24Z" style="fill: rgb(38, 50, 56); transform-origin: 380.76px 90.24px;" id="eltmduime8j4" class="animable"></path><path d="M379,87.22l2.84-1.69s-1.09-1.13-2.17-.45A2,2,0,0,0,379,87.22Z" style="fill: rgb(38, 50, 56); transform-origin: 380.378px 86.0411px;" id="elc6gt8z22zws" class="animable"></path><path d="M385.84,100a7.42,7.42,0,0,0,4.67-1.25s.32,2.46-1.74,2.93S385.84,100,385.84,100Z" style="fill: rgb(255, 144, 144); transform-origin: 388.184px 100.249px;" id="elmeoikiljbuk" class="animable"></path><path d="M402.37,95.48A8.14,8.14,0,0,1,403,92a3.72,3.72,0,0,1,3.22-2.52c3.72-.1,4.23,3.48,4.18,4.75-.14,3.35-2.85,7-7.89,7.11Z" style="fill: rgb(255, 170, 168); transform-origin: 406.383px 95.409px;" id="elvcbbpgzmwv" class="animable"></path><path d="M384.19,113.81s1.95,5.62,9.73,6.29,14.77-4.33,16.06-5.83l5,.58,1.77,23.53-2.82,9.84a13,13,0,0,0,1.15,9.87A86,86,0,0,1,420,168.52s-9.21,8.15-27.72,8.15c-11.35,0-18.09-4.15-18.09-4.15s2.4-15,2.69-18.45a66.27,66.27,0,0,0,.31-9s-5.81-2.27-5.81-11.1c0-7.62,11.46-20.05,11.46-20.05Z" style="fill: #05609D; transform-origin: 395.69px 145.24px;" id="elwdibdz1pmh" class="animable"></path><path d="M420.2,178.29l-1.65,13.22,10.08,1.87,3.18-11.83A8.42,8.42,0,0,0,420.2,178.29Z" style="fill: rgb(255, 168, 167); transform-origin: 425.18px 185.269px;" id="elejwb2jc3c4c" class="animable"></path><path d="M410.94,114.38s-3.81,3.92,1.53,18.33,9.92,28,9.92,28l-2.19,17.61s7.4-1.74,11.61,3.26l3.42-14.35a20.2,20.2,0,0,0-.23-10.27l-9.45-33.09a12.41,12.41,0,0,0-10.4-9H415Z" style="fill: #05609D; transform-origin: 422.703px 147.98px;" id="el2fek9vdf9jw" class="animable"></path><g id="eljrf03dq8fnj"><path d="M410.94,114.38s-3.81,3.92,1.53,18.33,9.92,28,9.92,28l-2.19,17.61s7.4-1.74,11.61,3.26l3.42-14.35a20.2,20.2,0,0,0-.23-10.27l-9.45-33.09a12.41,12.41,0,0,0-10.4-9H415Z" style="opacity: 0.2; transform-origin: 422.703px 147.98px;" class="animable" id="elo7z467bg15"></path></g><path d="M422.39,160.68a11.19,11.19,0,0,1,5.81,0,8.5,8.5,0,0,0-6.25-1.29Z" style="fill: #05609D; transform-origin: 425.075px 159.965px;" id="el3rjk16lt5r1" class="animable"></path><g id="elt0tkwx1wrw"><path d="M422.39,160.68a11.19,11.19,0,0,1,5.81,0,8.5,8.5,0,0,0-6.25-1.29Z" style="opacity: 0.4; transform-origin: 425.075px 159.965px;" class="animable" id="el7einn519xjl"></path></g><path d="M418.55,191.51a12.89,12.89,0,0,0-2.65,7.89c0,1.6-2,4.43-.31,5.13.71.3,2.86-1.65,3.59-4.06a13.21,13.21,0,0,1-.1,6.34c-.92,3.49-1.38,4.29.78,4.41s8.57-1.76,9.46-6.09-.69-11.75-.69-11.75Z" style="fill: rgb(255, 168, 167); transform-origin: 422.252px 201.368px;" id="ely78ld89t65f" class="animable"></path><path d="M346.64,143.83s-.37-3.61-1.64-5.36a27.83,27.83,0,0,1-3.09-4.78c-.41-1.14-1.1-2.57-2.24-.56s.59,4.74,1.45,6.13H332.5v7s1.28,5.5,8.72,5.65Z" style="fill: rgb(255, 168, 167); transform-origin: 339.57px 142.016px;" id="ely17thvshhq" class="animable"></path><polygon points="122.65 308.85 122.79 318.33 128.24 321.8 135.1 318.02 135.1 309.38 122.65 308.85" style="fill: rgb(255, 168, 167); transform-origin: 128.875px 315.325px;" id="elnug5y8l7ef" class="animable"></polygon><polygon points="85.01 315.47 84.87 326.15 86.91 329.62 96.21 329.62 97.71 314.94 85.01 315.47" style="fill: rgb(255, 168, 167); transform-origin: 91.29px 322.28px;" id="elps2e5zaetp" class="animable"></polygon><path d="M136.7,189.05l.76,66.32L135.9,312s-3.86,4.63-14.37.67c0,0-5.58-38.93-4.71-53.95a44.54,44.54,0,0,0-.32-8.08l-8-62.17Z" style="fill: rgb(69, 90, 100); transform-origin: 122.98px 251.371px;" id="elxwop3k2uj4d" class="animable"></path><path d="M126.94,200.47a22,22,0,0,1-7.89,12.59l-4.77,20.25-4.22-32.91Z" style="fill: rgb(55, 71, 79); transform-origin: 118.5px 216.855px;" id="elbm7k4iur5zq" class="animable"></path><path d="M88.28,188.49s-.47,24.37-.51,41.41c0,9.5.06,16.32.13,20.5a32,32,0,0,1-1.09,8.81c-1.23,4.65-3,13.62-3,27.35,0,21.36.2,30.62.2,30.62s8.75,5.26,14.65,0l9-59.56,8.36-47s17.13-5.78,17.13-21.74Z" style="fill: rgb(69, 90, 100); transform-origin: 108.48px 254.004px;" id="elavwjue0o6vd" class="animable"></path><path d="M145.52,143.48l3.61,10s11.08-6.14,17.4-9.66l5.42,8s-16.69,13.22-24.57,15-14.17-17.47-14.17-17.47S136.55,142.38,145.52,143.48Z" style="fill: rgb(255, 168, 167); transform-origin: 152.58px 155.149px;" id="elk9arcks1sg9" class="animable"></path><path d="M126.54,116.73l2.07,0a11.42,11.42,0,0,1,10.64,7.81l6.27,18.91a17.33,17.33,0,0,0-12.77,7.8Z" style="fill: #05609D; transform-origin: 136.03px 133.99px;" id="elys5cc0nlgok" class="animable"></path><path d="M77.64,200s2,2.62.76,8.62c-.47,2.31.48,4.56-.55,5.34S75,212.2,75,209a15,15,0,0,0-1.81,5.85c-.26,3.3.95,5.95-3.44,3.8s-5.79-4-5.79-6.47c0-3.26,2.79-9.57,4.4-12.63Z" style="fill: rgb(255, 168, 167); transform-origin: 71.3827px 209.489px;" id="ellzsz779bibr" class="animable"></path><path d="M111,116.23l-16.69,1.25-7,32.25s2.89,14.56,3,17.05A64.73,64.73,0,0,1,89.46,178c-.48,3.32-1.18,10.5-1.18,10.5s3,7.39,27.16,7.39c10.73,0,18.17-3.75,21.26-6.83,0,0-2.65-53.07-2.83-57.6s-2.15-11.87-7.33-14.72Z" style="fill: #05609D; transform-origin: 112.005px 156.06px;" id="elukbb3lb9aub" class="animable"></path><g id="el6kfuw8zcxxy"><path d="M111,116.23l-16.69,1.25-7,32.25s2.89,14.56,3,17.05A64.73,64.73,0,0,1,89.46,178c-.48,3.32-1.18,10.5-1.18,10.5s3,7.39,27.16,7.39c10.73,0,18.17-3.75,21.26-6.83,0,0-2.65-53.07-2.83-57.6s-2.15-11.87-7.33-14.72Z" style="opacity: 0.2; transform-origin: 112.005px 156.06px;" class="animable" id="elwh1gutgajk8"></path></g><path d="M99.69,76.43s-6.32.48-6.32,11.85a22.9,22.9,0,0,0,11.54,20.48l11-2s17.77-6.44,16.87-23.07c-.37-6.82-5.22-9.36-5.22-9.36Z" style="fill: rgb(38, 50, 56); transform-origin: 113.088px 91.545px;" id="el2aiwt6hig6s" class="animable"></path><path d="M103.67,117.56s9.13,6.19,12.12,7.78h0c2.92-4.94,1.44-7.9,1.44-7.9V97.5H103.67Z" style="fill: rgb(255, 170, 168); transform-origin: 110.638px 111.42px;" id="elqas7ufr7sj" class="animable"></path><path d="M117.23,113.9a21.81,21.81,0,0,1-12.46-11.84V97.5h12.46Z" style="fill: rgb(255, 144, 144); transform-origin: 111px 105.7px;" id="elcxvns61wgjv" class="animable"></path><path d="M120.38,75.27s12.91.49,10.58,21.26c-1.1,9.77-1.9,15.17-10.26,15.17s-20.7-6.3-19.9-23.07S120.38,75.27,120.38,75.27Z" style="fill: rgb(255, 170, 168); transform-origin: 116.002px 93.3425px;" id="elf2jgyg4chgb" class="animable"></path><polygon points="121.97 93.55 121.97 100.84 126.24 99.53 121.97 93.55" style="fill: rgb(255, 144, 144); transform-origin: 124.105px 97.195px;" id="elrtyusmdpth" class="animable"></polygon><path d="M115.74,94.81a1.49,1.49,0,1,0,3,0,1.49,1.49,0,0,0-3,0Z" style="fill: rgb(38, 50, 56); transform-origin: 117.24px 94.81px;" id="elac3wwhpe1xv" class="animable"></path><path d="M125.51,93.78a1.49,1.49,0,0,0,3,0,1.49,1.49,0,1,0-3,0Z" style="fill: rgb(38, 50, 56); transform-origin: 127.01px 93.78px;" id="elhcdlgozxnlp" class="animable"></path><path d="M128.8,90.68,125.9,89s1.11-1.16,2.22-.46A2,2,0,0,1,128.8,90.68Z" style="fill: rgb(38, 50, 56); transform-origin: 127.391px 89.4977px;" id="elq535q1kdh79" class="animable"></path><path d="M116.45,90.18l-2.62,2.13s-.7-1.44.33-2.24A2,2,0,0,1,116.45,90.18Z" style="fill: rgb(38, 50, 56); transform-origin: 115.024px 91.036px;" id="elbutof3f46b9" class="animable"></path><path d="M124,103.79a6.31,6.31,0,0,1-4-1.07s-.27,2.11,1.49,2.51A2.29,2.29,0,0,0,124,103.79Z" style="fill: rgb(255, 144, 144); transform-origin: 121.993px 103.99px;" id="elbao1l40wc4b" class="animable"></path><path d="M103.36,95.26s4.24-1.17,3.24-13.41c0,0,14.52,4.2,21.88-1.58s5.63-9,4-8.06l-2.71,1.59s3.3-7.48.55-8.89-5,3.35-10.37,3.43S99.8,66.57,99.55,76.43V95.26Z" style="fill: rgb(38, 50, 56); transform-origin: 116.729px 79.9545px;" id="el8fpi6t8oj3g" class="animable"></path><path d="M104.9,97s-.53-5-4-5.09c-3.81-.11-4.32,3.56-4.27,4.86.14,3.43,2.91,7.13,8.08,7.28Z" style="fill: rgb(255, 170, 168); transform-origin: 100.763px 97.9788px;" id="elwbxg6wk05zf" class="animable"></path><path d="M103.62,113.9s2.75,6,12.17,11.44c0,0-3.29-1.23-7.62,1.62-4.53,3-5.45,3.16-7.06-3.81S101.77,115.28,103.62,113.9Z" style="fill: #05609D; transform-origin: 108.176px 121.411px;" id="elfgegxq5p3s" class="animable"></path><path d="M115.79,125.34a53.15,53.15,0,0,0,1.44-8.65V113.9s2.89-.32,6.89,10.37c.79,2.13-4.15.56-5.42.19A3.1,3.1,0,0,0,115.79,125.34Z" style="fill: #05609D; transform-origin: 119.998px 119.632px;" id="el2t7r9rrlhfo" class="animable"></path><path d="M75.32,146.05l-5.16,20a26,26,0,0,0-.83,5.68l-1,27.88,9.29.4s4.56-22.15,5.59-29.81l6-20.32Z" style="fill: rgb(255, 168, 167); transform-origin: 78.77px 173.03px;" id="el9oc4f3wqi14" class="animable"></path><path d="M95.58,117.38s3.71,4.52-.6,16.45-5.72,16-5.72,16-8.62,1.9-13.94-3.79l6-20.35a11,11,0,0,1,8.94-7.76C92.06,117.69,94,117.47,95.58,117.38Z" style="fill: #05609D; transform-origin: 86.1923px 133.757px;" id="elbf39wouczk8" class="animable"></path><path d="M166.53,143.83s.37-3.61,1.64-5.36a27.23,27.23,0,0,0,3.09-4.78c.41-1.14,1.1-2.57,2.24-.56s-.59,4.74-1.45,6.13h8.62v7s-1.28,5.5-8.72,5.65Z" style="fill: rgb(255, 168, 167); transform-origin: 173.6px 142.016px;" id="el1831v29nk4zh" class="animable"></path><path d="M84.88,325.48a35.53,35.53,0,0,0,2,4.14s-.79-4.89,3.46-5.32,6.51-.34,6.56,2-.05,4.55-.05,4.55,1.18,5.41,3.18,8.26,3.32,4.3,4.38,5.7,3.29,4.09.88,8.32c-1.17,2-14.27,3-17.52-2.24s-.62-6.92-3.26-10.94-2.86-4.89-2.43-7.22,1.38-6.09,1.49-6.84c.25-1.56,1.27-1.13,1.27-1.13Z" style="fill: rgb(55, 71, 79); transform-origin: 94.1379px 339.422px;" id="elys3zdrenmco" class="animable"></path><path d="M105.32,353.1a8.28,8.28,0,0,0,.51-1v0s-13.81.61-16.18-.69-2.69-5.77-2.86-7.53-.28-3.31-2.84-7.27a12.61,12.61,0,0,1-1.84-3.86h0c-.43,2.33-.22,3.2,2.43,7.22s0,5.66,3.26,10.94S104.15,355.15,105.32,353.1Z" style="fill: rgb(38, 50, 56); transform-origin: 93.8828px 343.761px;" id="elui2hpjg0e7e" class="animable"></path><path d="M88.82,334.09a.52.52,0,0,1-.36-.16.5.5,0,0,1,0-.71s4.35-4,9.08-1.15a.51.51,0,0,1,.18.69.51.51,0,0,1-.69.17c-4.09-2.44-7.85,1-7.89,1A.49.49,0,0,1,88.82,334.09Z" style="fill: rgb(235, 235, 235); transform-origin: 93.0496px 332.568px;" id="ellfqa0424z2" class="animable"></path><path d="M89.93,337.64a.49.49,0,0,1-.37-.16.49.49,0,0,1,0-.7s4.36-4,9.09-1.15a.5.5,0,0,1-.52.86c-4.08-2.44-7.73.88-7.88,1A.5.5,0,0,1,89.93,337.64Z" style="fill: rgb(235, 235, 235); transform-origin: 94.1514px 336.123px;" id="elwk1xjyu2gea" class="animable"></path><path d="M92,340.94a.51.51,0,0,1-.37-.15.5.5,0,0,1,0-.71s4.35-4,9.08-1.15a.5.5,0,0,1-.51.86c-4.08-2.43-7.74.88-7.89,1A.5.5,0,0,1,92,340.94Z" style="fill: rgb(235, 235, 235); transform-origin: 96.2147px 339.423px;" id="elozkphuk6kt" class="animable"></path><path d="M104.44,344.78c-.54-.71-1.14-1.43-1.87-2.35a10.27,10.27,0,0,0-12.92,8.92s3.2,2.13,9.11,2.13a20.13,20.13,0,0,0,7.07-1.44l0-.09C107.31,348.38,105.4,346,104.44,344.78Z" style="fill: rgb(235, 235, 235); transform-origin: 98.0116px 347.775px;" id="el133stprqwv7" class="animable"></path><path d="M122.76,316.76a19.24,19.24,0,0,0,5.48,5s-.12-2.55.63-3.45,6.38-2.69,7-1.59a21.49,21.49,0,0,1,1.13,4.07s7.4,5.56,9.94,6.79,9.11,3.21,9.74,6.47a5.67,5.67,0,0,1-3.35,6.42c-5.92,2.13-14.59-.36-19.46-3.79a14.42,14.42,0,0,0-8.29-3c-1.43-.25-5.44-1.05-5.72-4.31s.94-6,1-7.58-.36-5.84,1.94-5.84Z" style="fill: rgb(55, 71, 79); transform-origin: 138.312px 328.605px;" id="elq6kvt03yw9s" class="animable"></path><path d="M146.52,340a25.11,25.11,0,0,1-12.78-4.66c-3.41-2.61-4.82-2.16-9.28-3.06a6.29,6.29,0,0,1-4.66-3.72c0,.27,0,.54,0,.81.28,3.26,4.29,4.06,5.72,4.31a14.42,14.42,0,0,1,8.29,3c4.87,3.43,13.54,5.92,19.46,3.79a4.94,4.94,0,0,0,2-1.37A29.55,29.55,0,0,1,146.52,340Z" style="fill: rgb(38, 50, 56); transform-origin: 137.535px 334.91px;" id="elsqrzgadsozd" class="animable"></path><path d="M156.64,334.09c-.48-2.46-4.34-4.19-7.3-5.42-8.21,3-7.26,10.44-7.24,10.59a24.18,24.18,0,0,0,4.42.75,29.55,29.55,0,0,0,8.73-.87,5.43,5.43,0,0,1-.75.69A5.76,5.76,0,0,0,156.64,334.09Z" style="fill: rgb(235, 235, 235); transform-origin: 149.408px 334.358px;" id="elywg5p4xsdg" class="animable"></path><path d="M133.88,325.61a.59.59,0,0,1-.22-.05.49.49,0,0,1-.2-.65,7.58,7.58,0,0,1,4.68-3.7.48.48,0,0,1,.57.37.49.49,0,0,1-.37.57,6.72,6.72,0,0,0-4,3.2A.47.47,0,0,1,133.88,325.61Z" style="fill: rgb(235, 235, 235); transform-origin: 136.063px 323.405px;" id="elvxg0ce0lil" class="animable"></path><path d="M137.24,328.2a.46.46,0,0,1-.22-.06.48.48,0,0,1-.2-.64,7.58,7.58,0,0,1,4.68-3.7.48.48,0,0,1,.2.94,6.65,6.65,0,0,0-4,3.2A.51.51,0,0,1,137.24,328.2Z" style="fill: rgb(235, 235, 235); transform-origin: 139.424px 325.995px;" id="elojacgugwjri" class="animable"></path><path d="M140.74,330.48a.46.46,0,0,1-.22-.06.48.48,0,0,1-.2-.64,7.51,7.51,0,0,1,4.68-3.7.48.48,0,0,1,.57.37.47.47,0,0,1-.37.56,6.68,6.68,0,0,0-4,3.21A.51.51,0,0,1,140.74,330.48Z" style="fill: rgb(235, 235, 235); transform-origin: 142.924px 328.275px;" id="el321cppwetxp" class="animable"></path><rect x="152.91" y="139.26" width="199.91" height="112.34" rx="2.81" style="fill: #05609D; transform-origin: 252.865px 195.43px;" id="elknwkma63zg" class="animable"></rect><g id="el0tb2xwwmmi3"><rect x="152.91" y="139.26" width="199.91" height="112.34" rx="2.81" style="fill: rgb(255, 255, 255); opacity: 0.7; transform-origin: 252.865px 195.43px;" class="animable" id="eld0i3xopl4y"></rect></g><path d="M345.62,248.41H160.11a3.54,3.54,0,0,1-3.54-3.53V146a3.54,3.54,0,0,1,3.54-3.53H345.62a3.53,3.53,0,0,1,3.53,3.53v98.9A3.53,3.53,0,0,1,345.62,248.41ZM160.11,143.5a2.49,2.49,0,0,0-2.49,2.48v98.9a2.49,2.49,0,0,0,2.49,2.48H345.62a2.48,2.48,0,0,0,2.48-2.48V146a2.48,2.48,0,0,0-2.48-2.48Z" style="fill: #05609D; transform-origin: 252.86px 195.44px;" id="el3q1u98o4nbb" class="animable"></path><g id="elzjc07r8oq6o"><g style="opacity: 0.5; transform-origin: 252.86px 195.44px;" class="animable" id="elbrlodgm4tv"><path d="M345.62,248.41H160.11a3.54,3.54,0,0,1-3.54-3.53V146a3.54,3.54,0,0,1,3.54-3.53H345.62a3.53,3.53,0,0,1,3.53,3.53v98.9A3.53,3.53,0,0,1,345.62,248.41ZM160.11,143.5a2.49,2.49,0,0,0-2.49,2.48v98.9a2.49,2.49,0,0,0,2.49,2.48H345.62a2.48,2.48,0,0,0,2.48-2.48V146a2.48,2.48,0,0,0-2.48-2.48Z" style="fill: rgb(255, 255, 255); transform-origin: 252.86px 195.44px;" id="el3lkel9wov8m" class="animable"></path></g></g><rect x="171.49" y="191.33" width="162.76" height="38.89" rx="2.2" style="fill: rgb(255, 255, 255); transform-origin: 252.87px 210.775px;" id="elre41uyfabm" class="animable"></rect><path d="M190.57,201.46v15.95h-4.16V204.88h-3.08v-3.42Z" style="fill: #05609D; transform-origin: 186.95px 209.435px;" id="el43u5nj1gkkl" class="animable"></path><path d="M208.54,209.43c0,5.21-2.23,8.1-6.23,8.1s-6.26-2.89-6.26-8.1,2.21-8.08,6.26-8.08S208.54,204.22,208.54,209.43Zm-8.51,0c0,3.64.66,5.16,2.28,5.16s2.25-1.52,2.25-5.16-.66-5.17-2.25-5.17S200,205.76,200,209.43Z" style="fill: #05609D; transform-origin: 202.295px 209.44px;" id="el77td5xpbsbw" class="animable"></path><path d="M222.58,209.43c0,5.21-2.23,8.1-6.23,8.1s-6.26-2.89-6.26-8.1,2.21-8.08,6.26-8.08S222.58,204.22,222.58,209.43Zm-8.51,0c0,3.64.66,5.16,2.28,5.16s2.25-1.52,2.25-5.16-.66-5.17-2.25-5.17S214.07,205.76,214.07,209.43Z" style="fill: #05609D; transform-origin: 216.335px 209.44px;" id="eltw7lbo0l4t" class="animable"></path><path d="M228.09,215.62a1.9,1.9,0,0,1-2,2,2,2,0,1,1,2-2Z" style="fill: #05609D; transform-origin: 226.091px 215.621px;" id="elg02dkht4nij" class="animable"></path><path d="M242.19,209.43c0,5.21-2.23,8.1-6.23,8.1s-6.26-2.89-6.26-8.1,2.21-8.08,6.26-8.08S242.19,204.22,242.19,209.43Zm-8.51,0c0,3.64.66,5.16,2.28,5.16s2.25-1.52,2.25-5.16-.66-5.17-2.25-5.17S233.68,205.76,233.68,209.43Z" style="fill: #05609D; transform-origin: 235.945px 209.44px;" id="elsz11wqi00fl" class="animable"></path><path d="M256.23,209.43c0,5.21-2.23,8.1-6.23,8.1s-6.26-2.89-6.26-8.1,2.21-8.08,6.26-8.08S256.23,204.22,256.23,209.43Zm-8.51,0c0,3.64.66,5.16,2.28,5.16s2.25-1.52,2.25-5.16-.66-5.17-2.25-5.17S247.72,205.76,247.72,209.43Z" style="fill: #05609D; transform-origin: 249.985px 209.44px;" id="elo30kcvde12" class="animable"></path><path d="M270.27,209.43c0,5.21-2.23,8.1-6.24,8.1s-6.25-2.89-6.25-8.1,2.2-8.08,6.25-8.08S270.27,204.22,270.27,209.43Zm-8.51,0c0,3.64.66,5.16,2.27,5.16s2.26-1.52,2.26-5.16-.66-5.17-2.26-5.17S261.76,205.76,261.76,209.43Z" style="fill: #05609D; transform-origin: 264.025px 209.44px;" id="el9ivb0ggwmrc" class="animable"></path><path d="M275.77,215.62a1.95,1.95,0,1,1-3.89,0,1.95,1.95,0,1,1,3.89,0Z" style="fill: #05609D; transform-origin: 273.825px 215.62px;" id="elr7eg1u92u5" class="animable"></path><path d="M289.88,209.43c0,5.21-2.23,8.1-6.23,8.1s-6.26-2.89-6.26-8.1,2.21-8.08,6.26-8.08S289.88,204.22,289.88,209.43Zm-8.51,0c0,3.64.66,5.16,2.28,5.16s2.25-1.52,2.25-5.16-.66-5.17-2.25-5.17S281.37,205.76,281.37,209.43Z" style="fill: #05609D; transform-origin: 283.635px 209.44px;" id="ela35v770ulu5" class="animable"></path><path d="M303.92,209.43c0,5.21-2.23,8.1-6.24,8.1s-6.25-2.89-6.25-8.1,2.2-8.08,6.25-8.08S303.92,204.22,303.92,209.43Zm-8.51,0c0,3.64.66,5.16,2.27,5.16s2.26-1.52,2.26-5.16-.66-5.17-2.26-5.17S295.41,205.76,295.41,209.43Z" style="fill: #05609D; transform-origin: 297.675px 209.44px;" id="el029otlhm73mr" class="animable"></path><path d="M318,209.43c0,5.21-2.23,8.1-6.24,8.1s-6.26-2.89-6.26-8.1,2.21-8.08,6.26-8.08S318,204.22,318,209.43Zm-8.51,0c0,3.64.66,5.16,2.27,5.16s2.25-1.52,2.25-5.16-.66-5.17-2.25-5.17S309.45,205.76,309.45,209.43Z" style="fill: #05609D; transform-origin: 311.75px 209.44px;" id="elnncyuew8md" class="animable"></path><path d="M212.93,168H206l-1.11,2.82h-4.28l6.85-16h4.28l6.69,16H214Zm-1.23-3.19-2.18-5.69-2.23,5.69Z" style="fill: #05609D; transform-origin: 209.52px 162.82px;" id="el8x3xw5awxa5" class="animable"></path><path d="M221.53,154.89l3,11.53,3-11.53h4.07l3,11.53,3-11.53h4.28l-5.26,16h-4.3l-2.87-10.76-2.95,10.76h-4.28l-5.23-16Z" style="fill: #05609D; transform-origin: 229.435px 162.89px;" id="eleq6t6xl9per" class="animable"></path><path d="M252.7,168h-6.89l-1.12,2.82h-4.28l6.85-16h4.28l6.69,16h-4.44Zm-1.23-3.19-2.18-5.69-2.23,5.69Z" style="fill: #05609D; transform-origin: 249.32px 162.82px;" id="elpevh9x5q7bh" class="animable"></path><path d="M269.24,170.84l-2.32-4.42h-3.09v4.42h-4.17v-16h7.17c4.23,0,6.64,2.05,6.64,5.6a5.4,5.4,0,0,1-2.84,5.14l3.32,5.21Zm-5.41-7.74h3c1.68,0,2.66-.86,2.66-2.48s-1-2.41-2.66-2.41h-3Z" style="fill: #05609D; transform-origin: 266.805px 162.84px;" id="eltt11aeoi4gs" class="animable"></path><path d="M291.49,162.85c0,4.76-3.48,8-8.64,8h-6.72v-16H283C288.06,154.89,291.49,158.12,291.49,162.85Zm-4.25.05a4.28,4.28,0,0,0-4.33-4.62H280.3v9.19h2.82C285.53,167.47,287.24,165.63,287.24,162.9Z" style="fill: #05609D; transform-origin: 283.81px 162.85px;" id="elpqb2knraerl" class="animable"></path><path d="M299.41,158.1c-1,0-1.66.36-1.66,1.09,0,2.64,8.39,1.14,8.39,6.87,0,3.25-2.86,4.91-6.41,4.91a12,12,0,0,1-7.35-2.54l1.61-3.26a10.19,10.19,0,0,0,5.78,2.41c1.23,0,2-.45,2-1.29,0-2.71-8.39-1.07-8.39-6.71,0-3,2.53-4.87,6.37-4.87a12.32,12.32,0,0,1,6.37,1.79l-1.57,3.3A12.44,12.44,0,0,0,299.41,158.1Z" style="fill: #05609D; transform-origin: 299.26px 162.84px;" id="el86upo3s32ix" class="animable"></path><path d="M230,179.27a1.32,1.32,0,0,0,0,2.63,1.69,1.69,0,0,0,1.16-.55l.71.77a2.76,2.76,0,0,1-1.93.86,2.38,2.38,0,1,1,0-4.75,2.7,2.7,0,0,1,1.89.8l-.71.85A1.58,1.58,0,0,0,230,179.27Z" style="fill: #05609D; transform-origin: 229.638px 180.605px;" id="elqkesnfd7bxr" class="animable"></path><path d="M235.92,181.13a2,2,0,1,1-2-1.84A1.8,1.8,0,0,1,235.92,181.13Zm-2.74,0a.78.78,0,1,0,.77-.89A.8.8,0,0,0,233.18,181.14Z" style="fill: #05609D; transform-origin: 233.926px 181.284px;" id="elb8lpkrt77rs" class="animable"></path><path d="M240.2,180.66v2.27H239V181a.6.6,0,0,0-.62-.66.71.71,0,0,0-.7.69v1.9h-1.18v-3.6h1.18v.59a1.32,1.32,0,0,1,1.19-.63A1.25,1.25,0,0,1,240.2,180.66Z" style="fill: #05609D; transform-origin: 238.353px 181.109px;" id="elopfyea9hps8" class="animable"></path><path d="M244.46,179.33v3.28c0,1-.79,1.66-2,1.66a3,3,0,0,1-1.61-.47l.42-.82a1.93,1.93,0,0,0,1.11.36c.54,0,.86-.28.86-.69v-.39a1.21,1.21,0,0,1-1,.47,1.56,1.56,0,0,1-1.54-1.73,1.54,1.54,0,0,1,1.51-1.71,1.3,1.3,0,0,1,1.05.48v-.44Zm-1.18,1.7a.75.75,0,0,0-.72-.85.85.85,0,0,0,0,1.69A.75.75,0,0,0,243.28,181Z" style="fill: #05609D; transform-origin: 242.575px 181.78px;" id="elrwnt66sgt" class="animable"></path><path d="M247.67,179.29v1.08c-.66-.07-1.1.23-1.16.73v1.83h-1.18v-3.6h1.18v.6A1.3,1.3,0,0,1,247.67,179.29Z" style="fill: #05609D; transform-origin: 246.5px 181.11px;" id="elyvr1hbe61mi" class="animable"></path><path d="M251.29,180.59v2.34h-1.16v-.4A1.31,1.31,0,0,1,249,183a1.1,1.1,0,0,1-1.23-1.12c0-.68.49-1.08,1.38-1.09h.94v0c0-.34-.24-.54-.69-.54a2.61,2.61,0,0,0-1.08.29l-.32-.8a4,4,0,0,1,1.67-.39C250.71,179.29,251.29,179.76,251.29,180.59Zm-1.16,1.12v-.31h-.71c-.33,0-.5.12-.5.37s.18.41.49.41A.71.71,0,0,0,250.13,181.71Z" style="fill: #05609D; transform-origin: 249.53px 181.176px;" id="elrb0gp0onwv" class="animable"></path><path d="M254.43,182.75a2,2,0,0,1-1,.23,1.09,1.09,0,0,1-1.2-1.15v-1.54h-.5v-.78h.5v-1h1.18v1h.93v.78h-.93v1.36c0,.26.12.38.32.38a1.32,1.32,0,0,0,.45-.12Z" style="fill: #05609D; transform-origin: 253.08px 180.748px;" id="elmuo2my4hzv" class="animable"></path><path d="M258.52,179.33v3.6h-1.19v-.58a1.31,1.31,0,0,1-2.43-.74v-2.28h1.18v1.94a.58.58,0,0,0,.58.65c.42,0,.67-.34.67-.81v-1.78Z" style="fill: #05609D; transform-origin: 256.709px 181.157px;" id="eleui3pdyb4qt" class="animable"></path><path d="M260.64,178v4.93h-1.18V178Z" style="fill: #05609D; transform-origin: 260.05px 180.465px;" id="elsccpvqbvbdp" class="animable"></path><path d="M264.78,180.59v2.34h-1.16v-.4a1.31,1.31,0,0,1-1.09.45,1.1,1.1,0,0,1-1.23-1.12c0-.68.49-1.08,1.38-1.09h.94v0c0-.34-.24-.54-.69-.54a2.61,2.61,0,0,0-1.08.29l-.32-.8a4,4,0,0,1,1.68-.39C264.2,179.29,264.77,179.76,264.78,180.59Zm-1.16,1.12v-.31h-.71c-.33,0-.5.12-.5.37s.18.41.49.41A.71.71,0,0,0,263.62,181.71Z" style="fill: #05609D; transform-origin: 263.04px 181.158px;" id="elipkuthfrntb" class="animable"></path><path d="M267.92,182.75a2,2,0,0,1-1,.23,1.09,1.09,0,0,1-1.2-1.15v-1.54h-.5v-.78h.5v-1h1.18v1h.93v.78h-.93v1.36c0,.26.12.38.32.38a1.32,1.32,0,0,0,.45-.12Z" style="fill: #05609D; transform-origin: 266.57px 180.748px;" id="el3kbxupndqse" class="animable"></path><path d="M269.67,179.33v3.6h-1.18v-3.6Zm-.05-1a.54.54,0,1,1-.53-.54A.51.51,0,0,1,269.62,178.32Z" style="fill: #05609D; transform-origin: 269.08px 180.36px;" id="eldbxdvin74oo" class="animable"></path><path d="M274.22,181.13a2,2,0,1,1-2-1.84A1.8,1.8,0,0,1,274.22,181.13Zm-2.74,0a.78.78,0,1,0,.77-.89A.8.8,0,0,0,271.48,181.14Z" style="fill: #05609D; transform-origin: 272.226px 181.284px;" id="el44i3xwukzmt" class="animable"></path><path d="M278.5,180.66v2.27h-1.17V181a.6.6,0,0,0-.62-.66.71.71,0,0,0-.7.69v1.9h-1.18v-3.6H276v.59a1.32,1.32,0,0,1,1.19-.63A1.25,1.25,0,0,1,278.5,180.66Z" style="fill: #05609D; transform-origin: 276.668px 181.109px;" id="el32m45lhptoi" class="animable"></path><path d="M280.57,180.1c-.2,0-.34.08-.34.23,0,.47,1.89.25,1.88,1.5,0,.74-.64,1.15-1.52,1.15a2.65,2.65,0,0,1-1.62-.51l.37-.76a2.38,2.38,0,0,0,1.28.44c.22,0,.38-.07.38-.22,0-.49-1.86-.24-1.86-1.49,0-.75.63-1.16,1.48-1.16a2.92,2.92,0,0,1,1.49.42l-.39.77A2.84,2.84,0,0,0,280.57,180.1Z" style="fill: #05609D; transform-origin: 280.54px 181.13px;" id="elwe8d3nj3p8g" class="animable"></path><path d="M175,139.26l.81-1.36s2.17-1.52,3.55-1,1.61,1.54,1.45,3.51c-.17,2.18-2.22,6.44-4.11,4.79-1.18-1,.81-4.39.53-5.93Z" style="fill: rgb(255, 168, 167); transform-origin: 177.927px 141.181px;" id="elpbcnejobnpn" class="animable"></path><path d="M177.9,139.26l.8-1.36s2.17-1.52,3.55-1,1.62,1.54,1.46,3.51c-.18,2.18-2.23,6.44-4.11,4.79-1.18-1,.8-4.39.52-5.93Z" style="fill: rgb(255, 168, 167); transform-origin: 180.827px 141.181px;" id="els62k7t7pv28" class="animable"></path><path d="M172.05,139.26l.8-1.36s2.18-1.52,3.56-1,1.61,1.54,1.45,3.51c-.17,2.18-2.22,6.44-4.11,4.79-1.18-1,.81-4.39.53-5.93Z" style="fill: rgb(255, 168, 167); transform-origin: 174.977px 141.181px;" id="elnsayg8ooku" class="animable"></path><path d="M338.2,139.26l-.81-1.36s-2.17-1.52-3.55-1-1.61,1.54-1.45,3.51c.17,2.18,2.22,6.44,4.11,4.79,1.18-1-.81-4.39-.53-5.93Z" style="fill: rgb(255, 168, 167); transform-origin: 335.273px 141.181px;" id="eltbrvztailfk" class="animable"></path><path d="M335.27,139.26l-.8-1.36s-2.17-1.52-3.55-1-1.62,1.54-1.46,3.51c.18,2.18,2.23,6.44,4.12,4.79,1.17-1-.81-4.39-.53-5.93Z" style="fill: rgb(255, 168, 167); transform-origin: 332.343px 141.181px;" id="el29t29g6akhm" class="animable"></path><path d="M341.12,139.26l-.8-1.36s-2.18-1.52-3.56-1-1.61,1.54-1.45,3.51c.18,2.18,2.23,6.44,4.11,4.79,1.18-1-.81-4.39-.53-5.93Z" style="fill: rgb(255, 168, 167); transform-origin: 338.193px 141.181px;" id="el0tj147rmzm4" class="animable"></path></g><g id="freepik--Trophy--inject-5" class="animable" style="transform-origin: 249.86px 328.24px;"><polygon points="249.86 427.66 249.86 408.93 295.34 382.67 295.34 401.41 249.86 427.66" style="fill: rgb(55, 71, 79); transform-origin: 272.6px 405.165px;" id="elh0lvjuchq8d" class="animable"></polygon><polygon points="249.86 427.66 204.39 401.41 204.39 382.67 249.86 408.93 249.86 427.66" style="fill: rgb(38, 50, 56); transform-origin: 227.125px 405.165px;" id="el7bk5b55vx4a" class="animable"></polygon><polygon points="249.86 408.93 204.39 382.67 249.86 356.41 295.34 382.67 249.86 408.93" style="fill: rgb(69, 90, 100); transform-origin: 249.865px 382.67px;" id="eli0r2lqzjd2q" class="animable"></polygon><polygon points="249.86 405.37 249.86 400.43 289.89 377.32 289.89 382.26 249.86 405.37" style="fill: rgb(55, 71, 79); transform-origin: 269.875px 391.345px;" id="elz9phu8s9fj" class="animable"></polygon><polygon points="249.86 405.37 209.84 382.26 209.84 377.32 249.86 400.43 249.86 405.37" style="fill: rgb(38, 50, 56); transform-origin: 229.85px 391.345px;" id="el4mjfpfk6cfx" class="animable"></polygon><polygon points="249.86 400.43 209.84 377.32 249.86 354.21 289.89 377.32 249.86 400.43" style="fill: rgb(69, 90, 100); transform-origin: 249.865px 377.32px;" id="el5iie606ryhn" class="animable"></polygon><path d="M210.88,327.68c-2.13,0-4.36-.09-6.64-.29-17.47-1.58-29-9.54-33.31-23a27.24,27.24,0,0,1,2-20.91,26,26,0,0,1,15.57-13c15-4.45,28.17,1.7,32.1,14.94h0L232.36,325l-3.87.9A84.93,84.93,0,0,1,210.88,327.68Zm-12.73-51.26a26.08,26.08,0,0,0-7.51,1.19A18.55,18.55,0,0,0,179.56,287a19.7,19.7,0,0,0-1.51,15.13c6.66,20.75,34.44,18.7,44.82,17.16l-9.43-31.75h0C211.77,281.89,206.86,276.42,198.15,276.42Z" style="fill: #05609D; transform-origin: 201.035px 298.363px;" id="elqwffbnfpf6i" class="animable"></path><path d="M271.23,325.85l-3.86-.9,11.74-39.57h0c3.94-13.24,17.14-19.39,32.11-14.94a26,26,0,0,1,15.57,13,27.24,27.24,0,0,1,2,20.91c-4.33,13.46-15.85,21.42-33.32,23-2.27.2-4.5.29-6.63.29A85.2,85.2,0,0,1,271.23,325.85Zm15-38.34h0l-9.42,31.75c10.37,1.54,38.15,3.59,44.82-17.16A19.7,19.7,0,0,0,320.17,287a18.58,18.58,0,0,0-11.08-9.36,26.2,26.2,0,0,0-7.52-1.19C292.86,276.42,288,281.89,286.28,287.51Z" style="fill: #05609D; transform-origin: 298.69px 298.322px;" id="elbkwt6388c8s" class="animable"></path><path d="M270.51,374.3a13.18,13.18,0,0,0-5.68-5.77c-8.52-4.91-22.34-4.91-30.86,0a13.18,13.18,0,0,0-5.68,5.77h-.71v3.14c0,3.22,2.13,6.45,6.39,8.91,8.52,4.92,22.34,4.92,30.86,0,4.26-2.46,6.39-5.69,6.39-8.91V374.3Z" style="fill: #05609D; transform-origin: 249.4px 377.444px;" id="elsag048f72xc" class="animable"></path><g id="el6cf287odjnn"><path d="M270.51,374.3a13.18,13.18,0,0,0-5.68-5.77c-8.52-4.91-22.34-4.91-30.86,0a13.18,13.18,0,0,0-5.68,5.77h-.71v3.14c0,3.22,2.13,6.45,6.39,8.91,8.52,4.92,22.34,4.92,30.86,0,4.26-2.46,6.39-5.69,6.39-8.91V374.3Z" style="opacity: 0.3; transform-origin: 249.4px 377.444px;" class="animable" id="ell7xfryh1vq8"></path></g><path d="M264.83,365c-.4-.23-.82-.44-1.25-.65-2.28-1.54-7.64-5.71-7.64-11.07,0-8.29,15.28-16.94,15.28-16.94l-44-.34s15.4,9,15.4,17.28c0,6.81-8.67,11.72-8.67,11.72-8.52,4.92-8.52,12.89,0,17.81s22.34,4.92,30.86,0S273.35,369.9,264.83,365Z" style="fill: #05609D; transform-origin: 249.22px 361.25px;" id="el2xblxvq6vue" class="animable"></path><path d="M196.86,259.42v18.39a71.19,71.19,0,0,0,26.68,55.59l.09.09,1,.76c.81.59,1.69,1.17,2.64,1.73a44.12,44.12,0,0,0,19.52,5.25,51.38,51.38,0,0,0,5.55,0c7.12-.36,14.06-2.11,19.51-5.25l.92-.56s2.34-1.6,3.27-2.44a.58.58,0,0,1,.12-.1,71.23,71.23,0,0,0,26.74-55.65V259.42Z" style="fill: #05609D; transform-origin: 249.88px 300.363px;" id="el7q5x0gaaorr" class="animable"></path><path d="M221,259.42v18.39A119.31,119.31,0,0,0,226.72,315a75.06,75.06,0,0,0,8.82,18.43l.06.09c.17.25.34.51.52.76a21,21,0,0,0,1.44,1.73s8.37,9,8.37,17.28A18.62,18.62,0,0,1,241.22,365a13.15,13.15,0,0,0,0,17.81,11.38,11.38,0,0,0,16.78,0A13.13,13.13,0,0,0,258,365c-.22-.23-.44-.44-.67-.65a18.32,18.32,0,0,1-4.16-11.07c0-8.29,8.31-16.94,8.31-16.94h0l.35-.33.5-.56s1.27-1.6,1.77-2.44a.86.86,0,0,1,.07-.1c9.08-13.35,14.54-33.73,14.54-55.65V259.42Z" style="fill: #05609D; transform-origin: 249.854px 322.961px;" id="elqnh5ma41dml" class="animable"></path><g id="ely246qrxtcoj"><path d="M221,259.42v18.39A119.31,119.31,0,0,0,226.72,315a75.06,75.06,0,0,0,8.82,18.43l.06.09c.17.25.34.51.52.76a21,21,0,0,0,1.44,1.73s8.37,9,8.37,17.28A18.62,18.62,0,0,1,241.22,365a13.15,13.15,0,0,0,0,17.81,11.38,11.38,0,0,0,16.78,0A13.13,13.13,0,0,0,258,365c-.22-.23-.44-.44-.67-.65a18.32,18.32,0,0,1-4.16-11.07c0-8.29,8.31-16.94,8.31-16.94h0l.35-.33.5-.56s1.27-1.6,1.77-2.44a.86.86,0,0,1,.07-.1c9.08-13.35,14.54-33.73,14.54-55.65V259.42Z" style="fill: rgb(255, 255, 255); opacity: 0.1; transform-origin: 249.854px 322.961px;" class="animable" id="elhmcx7cpyfsm"></path></g><ellipse cx="249.86" cy="259.42" rx="53.01" ry="30.6" style="fill: #05609D; transform-origin: 249.86px 259.42px;" id="elz7on5hplgk" class="animable"></ellipse><g id="elavt76bg0q6r"><ellipse cx="249.86" cy="259.42" rx="53.01" ry="30.6" style="opacity: 0.1; transform-origin: 249.86px 259.42px;" class="animable" id="elppngq2yps7s"></ellipse></g><path d="M249.86,282.54c-12.68,0-25-2.9-33.74-8-7.49-4.32-11.78-9.85-11.78-15.16s4.29-10.84,11.78-15.16c8.77-5.06,21.06-8,33.74-8s25,2.9,33.74,8c7.49,4.32,11.79,9.85,11.79,15.16s-4.3,10.84-11.79,15.16C274.84,279.64,262.54,282.54,249.86,282.54Z" style="fill: #05609D; transform-origin: 249.865px 259.38px;" id="el4lif92bua7n" class="animable"></path><g id="elddezxua2ed"><path d="M249.86,282.54c-12.68,0-25-2.9-33.74-8-7.49-4.32-11.78-9.85-11.78-15.16s4.29-10.84,11.78-15.16c8.77-5.06,21.06-8,33.74-8s25,2.9,33.74,8c7.49,4.32,11.79,9.85,11.79,15.16s-4.3,10.84-11.79,15.16C274.84,279.64,262.54,282.54,249.86,282.54Z" style="opacity: 0.3; transform-origin: 249.865px 259.38px;" class="animable" id="el1x496q6qrow"></path></g></g><g id="freepik--Confetti--inject-5" class="animable" style="transform-origin: 250.22px 78.8492px;"><path d="M71.2,70.73a1.29,1.29,0,0,0,.82,1l4.46,1.84a2.12,2.12,0,0,0,2.75-2.81L78,68C76.18,64,71,67.75,71.2,70.73Z" style="fill: #05609D; transform-origin: 75.3011px 69.9952px;" id="elly1vmaxso2f" class="animable"></path><path d="M431.41,87.76a1.29,1.29,0,0,0,.82,1l4.46,1.84a2.11,2.11,0,0,0,2.74-2.81l-1.24-2.78C436.39,81,431.21,84.78,431.41,87.76Z" style="fill: #05609D; transform-origin: 435.51px 87.0172px;" id="el9qp74sdm7wp" class="animable"></path><path d="M225.1,43.91a.77.77,0,0,0,.5.63l2.7,1.11A1.27,1.27,0,0,0,230,44l-.75-1.68C228.11,39.82,225,42.11,225.1,43.91Z" style="fill: #05609D; transform-origin: 227.599px 43.4923px;" id="ellab6sruo4n" class="animable"></path><path d="M229.88,93.13a.77.77,0,0,0,.5.63l2.69,1.11a1.28,1.28,0,0,0,1.66-1.7L234,91.49C232.89,89,229.76,91.32,229.88,93.13Z" style="fill: #05609D; transform-origin: 232.358px 92.6848px;" id="elya0d7pl7h7f" class="animable"></path><path d="M342,95.43A9,9,0,0,1,340,99a16.2,16.2,0,0,1,2.92,2.37L347,98.21Z" style="fill: #05609D; transform-origin: 343.5px 98.4px;" id="elal045s5788m" class="animable"></path><path d="M277.23,78.31a8.8,8.8,0,0,1-2.06,3.53,15.92,15.92,0,0,1,2.93,2.37l4.12-3.12Z" style="fill: #05609D; transform-origin: 278.695px 81.26px;" id="elzj5wfyrrt3" class="animable"></path><path d="M345.18,46.41a8.83,8.83,0,0,1-2.06,3.52,16.71,16.71,0,0,1,2.93,2.37l4.11-3.11Z" style="fill: #05609D; transform-origin: 346.64px 49.355px;" id="elycn8w5eyyen" class="animable"></path><g id="el670k0lto8m7"><path d="M345.18,46.41a8.83,8.83,0,0,1-2.06,3.52,16.71,16.71,0,0,1,2.93,2.37l4.11-3.11Z" style="fill: rgb(255, 255, 255); opacity: 0.7; transform-origin: 346.64px 49.355px;" class="animable" id="eldrnfvm1knds"></path></g><path d="M162.81,46.72a11.3,11.3,0,0,1,3.32,4,20.81,20.81,0,0,1,4.13-2.47c-.65-2.1-4.66-2.74-5.31-4.84Z" style="fill: #05609D; transform-origin: 166.535px 47.065px;" id="elobtlazy7dd" class="animable"></path><path d="M185.76,81.26A11.41,11.41,0,0,1,184,86.17a20.51,20.51,0,0,1,4.22,2.29c1.48-1.62,0-5.4,1.48-7Z" style="fill: #05609D; transform-origin: 186.85px 84.86px;" id="elzjcori62zb9" class="animable"></path><path d="M64.47,92.86a11.34,11.34,0,0,1,3.33,4,20.74,20.74,0,0,1,4.12-2.47Q71,91.25,70,88.1Z" style="fill: #05609D; transform-origin: 68.195px 92.48px;" id="el9r8j89dxllk" class="animable"></path><g id="ellmr85l4sva9"><path d="M64.47,92.86a11.34,11.34,0,0,1,3.33,4,20.74,20.74,0,0,1,4.12-2.47Q71,91.25,70,88.1Z" style="fill: rgb(255, 255, 255); opacity: 0.5; transform-origin: 68.195px 92.48px;" class="animable" id="elf8gzptgj9xj"></path></g><path d="M156.79,77.23a8.83,8.83,0,0,1-2.06,3.52,16.35,16.35,0,0,1,2.93,2.37L161.77,80Z" style="fill: #05609D; transform-origin: 158.25px 80.175px;" id="el07cminbviu5w" class="animable"></path><g id="elxrv1jiljotq"><path d="M156.79,77.23a8.83,8.83,0,0,1-2.06,3.52,16.35,16.35,0,0,1,2.93,2.37L161.77,80Z" style="fill: rgb(255, 255, 255); opacity: 0.5; transform-origin: 158.25px 80.175px;" class="animable" id="elck9qk9lm6li"></path></g><path d="M204.8,62.17a8.83,8.83,0,0,1-2.06,3.52,16.71,16.71,0,0,1,2.93,2.37L209.78,65Z" style="fill: #05609D; transform-origin: 206.26px 65.115px;" id="elm022np9qeth" class="animable"></path><g id="el7p0r00b1ed"><path d="M204.8,62.17a8.83,8.83,0,0,1-2.06,3.52,16.71,16.71,0,0,1,2.93,2.37L209.78,65Z" style="fill: rgb(255, 255, 255); opacity: 0.5; transform-origin: 206.26px 65.115px;" class="animable" id="elsrws7qoyhho"></path></g><path d="M321.09,110.58a8.8,8.8,0,0,1-2.06,3.53,16.27,16.27,0,0,1,2.93,2.37l4.11-3.12Z" style="fill: #05609D; transform-origin: 322.55px 113.53px;" id="eln4640mv8up" class="animable"></path><g id="elbrsgtg9af4n"><path d="M321.09,110.58a8.8,8.8,0,0,1-2.06,3.53,16.27,16.27,0,0,1,2.93,2.37l4.11-3.12Z" style="fill: rgb(255, 255, 255); opacity: 0.5; transform-origin: 322.55px 113.53px;" class="animable" id="elrfvww0yty"></path></g><path d="M267.17,107.36a11.41,11.41,0,0,1-1.77,4.91,20.51,20.51,0,0,1,4.22,2.29c1.48-1.62,0-5.4,1.48-7Z" style="fill: #05609D; transform-origin: 268.25px 110.96px;" id="el8hmw45wpsha" class="animable"></path><g id="el9h9ho3ov8c"><path d="M267.17,107.36a11.41,11.41,0,0,1-1.77,4.91,20.51,20.51,0,0,1,4.22,2.29c1.48-1.62,0-5.4,1.48-7Z" style="fill: rgb(255, 255, 255); opacity: 0.5; transform-origin: 268.25px 110.96px;" class="animable" id="elnm2ehxogjo"></path></g><path d="M445.66,52a11.41,11.41,0,0,1-1.77,4.91,20.51,20.51,0,0,1,4.22,2.29c1.49-1.62,0-5.4,1.48-7Z" style="fill: #05609D; transform-origin: 446.74px 55.6px;" id="el3h9l6pege3b" class="animable"></path><g id="elclk3dp9rrbn"><path d="M445.66,52a11.41,11.41,0,0,1-1.77,4.91,20.51,20.51,0,0,1,4.22,2.29c1.49-1.62,0-5.4,1.48-7Z" style="fill: rgb(255, 255, 255); opacity: 0.5; transform-origin: 446.74px 55.6px;" class="animable" id="eloieqln1mudg"></path></g><path d="M305.07,43.48a11.49,11.49,0,0,1-1.76,4.9,20.55,20.55,0,0,1,4.22,2.3c1.48-1.62,0-5.41,1.48-7Z" style="fill: #05609D; transform-origin: 306.16px 47.08px;" id="elg6ta5jq76pb" class="animable"></path><path d="M322,75.69a1.26,1.26,0,0,0,.82,1l4.46,1.85A2.12,2.12,0,0,0,330,75.77L328.75,73C327,68.93,321.77,72.71,322,75.69Z" style="fill: #05609D; transform-origin: 326.072px 74.949px;" id="elfsbz0od2f4h" class="animable"></path><g id="el7yygi0dau9t"><path d="M322,75.69a1.26,1.26,0,0,0,.82,1l4.46,1.85A2.12,2.12,0,0,0,330,75.77L328.75,73C327,68.93,321.77,72.71,322,75.69Z" style="fill: rgb(255, 255, 255); opacity: 0.2; transform-origin: 326.072px 74.949px;" class="animable" id="el72fby51osfl"></path></g><path d="M254.18,65.54a.75.75,0,0,0,.49.63l2.7,1.12a1.28,1.28,0,0,0,1.66-1.7l-.75-1.68C257.18,61.45,254.06,63.74,254.18,65.54Z" style="fill: #05609D; transform-origin: 256.658px 65.1113px;" id="el68ep3p0937g" class="animable"></path><g id="el26nie2la3z6"><path d="M254.18,65.54a.75.75,0,0,0,.49.63l2.7,1.12a1.28,1.28,0,0,0,1.66-1.7l-.75-1.68C257.18,61.45,254.06,63.74,254.18,65.54Z" style="fill: rgb(255, 255, 255); opacity: 0.2; transform-origin: 256.658px 65.1113px;" class="animable" id="eltq3y9sdr5a"></path></g><path d="M194.38,112.13a.75.75,0,0,0,.49.63l2.7,1.12a1.28,1.28,0,0,0,1.65-1.7l-.74-1.68C197.38,108,194.26,110.33,194.38,112.13Z" style="fill: #05609D; transform-origin: 196.852px 111.69px;" id="elwoq7eyttdh9" class="animable"></path><g id="ellzng2q5kkpe"><path d="M194.38,112.13a.75.75,0,0,0,.49.63l2.7,1.12a1.28,1.28,0,0,0,1.65-1.7l-.74-1.68C197.38,108,194.26,110.33,194.38,112.13Z" style="fill: rgb(255, 255, 255); opacity: 0.2; transform-origin: 196.852px 111.69px;" class="animable" id="elmockj49hle"></path></g><path d="M48,54a11.34,11.34,0,0,1,3.33,4,20.78,20.78,0,0,1,4.12-2.48c-.64-2.1-4.65-2.74-5.3-4.84Z" style="fill: #05609D; transform-origin: 51.725px 54.34px;" id="elg8pop4s8c34" class="animable"></path><g id="el6159ypbygd3"><path d="M48,54a11.34,11.34,0,0,1,3.33,4,20.78,20.78,0,0,1,4.12-2.48c-.64-2.1-4.65-2.74-5.3-4.84Z" style="fill: rgb(255, 255, 255); opacity: 0.2; transform-origin: 51.725px 54.34px;" class="animable" id="elzgbv5p7g9xj"></path></g><path d="M448.5,94.11a11.18,11.18,0,0,1-1.76,4.9,20.55,20.55,0,0,1,4.22,2.3c1.48-1.62,0-5.41,1.48-7Z" style="fill: #05609D; transform-origin: 449.59px 97.71px;" id="el6ws0j08zbly" class="animable"></path><g id="el57js71eyz5s"><path d="M448.5,94.11a11.18,11.18,0,0,1-1.76,4.9,20.55,20.55,0,0,1,4.22,2.3c1.48-1.62,0-5.41,1.48-7Z" style="fill: rgb(255, 255, 255); opacity: 0.2; transform-origin: 449.59px 97.71px;" class="animable" id="elvnwkdm49u4b"></path></g></g><defs>     <filter id="active" height="200%">         <feMorphology in="SourceAlpha" result="DILATED" operator="dilate" radius="2"></feMorphology>                <feFlood flood-color="#32DFEC" flood-opacity="1" result="PINK"></feFlood>        <feComposite in="PINK" in2="DILATED" operator="in" result="OUTLINE"></feComposite>        <feMerge>            <feMergeNode in="OUTLINE"></feMergeNode>            <feMergeNode in="SourceGraphic"></feMergeNode>        </feMerge>    </filter>    <filter id="hover" height="200%">        <feMorphology in="SourceAlpha" result="DILATED" operator="dilate" radius="2"></feMorphology>                <feFlood flood-color="#ff0000" flood-opacity="0.5" result="PINK"></feFlood>        <feComposite in="PINK" in2="DILATED" operator="in" result="OUTLINE"></feComposite>        <feMerge>            <feMergeNode in="OUTLINE"></feMergeNode>            <feMergeNode in="SourceGraphic"></feMergeNode>        </feMerge>            <feColorMatrix type="matrix" values="0   0   0   0   0                0   1   0   0   0                0   0   0   0   0                0   0   0   1   0 "></feColorMatrix>    </filter></defs></svg>